<?xml version="1.0" standalone="no"?>
<!DOCTYPE svg PUBLIC "-//W3C//DTD SVG 20010904//EN"
 "http://www.w3.org/TR/2001/REC-SVG-20010904/DTD/svg10.dtd">
<svg version="1.0" xmlns="http://www.w3.org/2000/svg"
 width="700.000000pt" height="700.000000pt" viewBox="0 0 700.000000 700.000000"
 preserveAspectRatio="xMidYMid meet">
<metadata>
Created by potrace 1.11, written by Peter Selinger 2001-2013
</metadata>
<g transform="translate(0.000000,700.000000) scale(0.100000,-0.100000)"
fill="#000000" stroke="none">
<path d="M3388 6845 c-2 -1 -41 -5 -88 -8 -168 -12 -389 -62 -571 -128 -683
-251 -1207 -830 -1387 -1534 -17 -66 -34 -140 -37 -165 -12 -77 -14 -84 -21
-125 -4 -22 -7 -137 -8 -255 0 -195 4 -277 19 -350 3 -14 7 -38 9 -55 16 -106
63 -281 101 -370 7 -16 16 -41 20 -55 29 -101 170 -358 270 -495 24 -33 44
-63 44 -67 1 -3 18 -37 40 -75 21 -37 101 -180 178 -318 77 -137 152 -272 168
-300 112 -199 550 -981 655 -1170 37 -66 77 -138 90 -160 12 -22 38 -69 58
-105 19 -36 38 -69 42 -75 4 -5 21 -35 38 -65 16 -30 74 -134 128 -230 54 -96
148 -264 209 -374 61 -109 115 -198 120 -198 9 0 105 154 127 205 7 15 16 27
20 27 4 0 8 4 8 9 0 4 43 82 96 172 331 563 400 680 427 729 16 30 35 62 41
70 6 8 17 26 25 40 16 29 290 496 584 995 110 187 208 354 217 370 33 57 247
421 358 608 62 103 112 190 112 192 0 3 16 38 36 78 99 199 164 429 202 712 8
61 8 458 0 500 -4 17 -12 64 -18 105 -7 41 -23 120 -37 175 -14 55 -26 107
-28 115 -2 8 -13 40 -25 70 -12 30 -29 75 -37 100 -8 24 -41 96 -72 160 -223
451 -590 814 -1042 1029 -228 109 -438 168 -724 206 -51 7 -341 15 -347 10z
m273 -1388 c142 -23 320 -119 440 -237 209 -208 293 -499 229 -791 -96 -434
-515 -719 -961 -653 -306 45 -574 270 -677 569 -29 83 -33 113 -39 247 -10
223 60 418 209 591 107 122 288 230 449 266 83 19 258 23 350 8z"/>
</g>
</svg>
